<?xml version="1.0" encoding="utf-8"?>
<!-- Svg Vector Icons : http://www.onlinewebfonts.com/icon -->
<!DOCTYPE svg PUBLIC "-//W3C//DTD SVG 1.1//EN" "http://www.w3.org/Graphics/SVG/1.1/DTD/svg11.dtd">
<svg version="1.1" xmlns="http://www.w3.org/2000/svg" xmlns:xlink="http://www.w3.org/1999/xlink" x="0px" y="0px" viewBox="0 0 1000 1000" enable-background="new 0 0 1000 1000" xml:space="preserve">
<metadata> Svg Vector Icons : http://www.onlinewebfonts.com/icon </metadata>
<g><g transform="translate(0.000000,511.000000) scale(0.100000,-0.100000)"><path d="M4613.4,4990.3c-768.3-81.7-1526.5-414.8-2106.8-929.8c-472-418.9-848-976.8-1052.4-1563.2c-392.4-1128-241.1-2290.7,449.6-3449.4c300.4-502.7,696.8-1005.4,1542.8-1953.5c711.1-797,1220-1424.3,1442.7-1777.8c92-143,128.7-143,222.7,6.1c102.2,161.4,523.1,713.2,750,985c118.5,141,441.4,510.9,719.3,825.6c764.2,860.3,1052.4,1213.8,1354.8,1667.5c931.8,1391.6,1074.8,2844.5,412.8,4148.2C7977,3678.4,7415,4238.3,6685.5,4604.1C6031.6,4931,5322.5,5063.8,4613.4,4990.3z M5559.6,2581c521.1-132.8,1132.1-306.5,1463.1-412.8c208.4-67.4,214.6-71.5,214.6-128.7c0-61.3,0-61.3-275.9-132.8l-275.9-71.5l-6.1-582.4l-4.1-582.4l45-20.4c24.5-12.3,67.4-53.1,94-92c63.4-94,51.1-204.3-28.6-288.1l-57.2-61.3l55.2-157.3c79.7-220.7,73.6-228.9-161.4-228.9c-157.3,0-196.2,6.1-206.4,32.7c-6.1,18.4,14.3,104.2,45,194.1l55.2,161.4l-53.1,55.2c-100.1,98.1-96,243.2,8.2,343.3l61.3,59.3v557.9c0,414.8-6.1,557.9-24.5,557.9c-12.3,0-347.4-81.7-743.8-183.9c-396.4-100.1-745.9-183.9-776.5-183.9c-94,0-1943.3,500.6-2180.4,590.6c-75.6,28.6-77.7,116.5-2,145.1c196.2,75.6,2090.5,551.7,2192.6,551.7C5048.7,2703.6,5302.1,2648.5,5559.6,2581z M3967.7,1547c613-165.5,1015.6-253.4,1093.3-241.1c38.8,8.2,357.6,85.8,705,173.7c349.4,87.9,645.7,161.4,660,161.4c40.9,0,34.7-494.5-10.2-586.5c-69.5-149.2-312.7-271.8-707-357.6c-183.9-40.9-267.7-45-709.1-45c-443.4,0-525.2,4.1-713.2,45c-386.2,83.8-633.5,210.5-702.9,357.6c-26.6,55.2-34.7,132.8-34.7,341.3c0,245.2,2,267.7,36.8,257.5C3604,1647.2,3777.7,1600.2,3967.7,1547z"/></g></g>
</svg>