<?xml version="1.0" encoding="UTF-8"?>
<!DOCTYPE svg PUBLIC "-//W3C//DTD SVG 1.1//EN" "http://www.w3.org/Graphics/SVG/1.1/DTD/svg11.dtd">
<!-- Creator: CorelDRAW X7 -->
<svg xmlns="http://www.w3.org/2000/svg" xml:space="preserve" width="512px" height="512px" version="1.1" style="shape-rendering:geometricPrecision; text-rendering:geometricPrecision; image-rendering:optimizeQuality; fill-rule:evenodd; clip-rule:evenodd"
viewBox="0 0 512 512"
 xmlns:xlink="http://www.w3.org/1999/xlink">
 <defs>
  <style type="text/css">
   <![CDATA[
    .fil0 {fill:#EF161E; opacity: 0.8;}
    .fil1 {fill:white;fill-rule:nonzero; opacity: 1.0;}
   ]]>
  </style>
 </defs>
 <g id="Camada_x0020_1">
  <metadata id="CorelCorpID_0Corel-Layer"/>
  <circle class="fil0" cx="256" cy="256" r="256"/>
  <path class="fil1" d="M357 347l0 53 -200 0c2,-20 9,-39 19,-57 11,-18 33,-42 65,-72 25,-24 41,-40 47,-48 8,-12 12,-24 12,-36 0,-12 -4,-22 -10,-29 -7,-7 -17,-10 -29,-10 -12,0 -21,3 -28,11 -7,7 -11,19 -12,35l-57 -5c3,-32 14,-54 32,-68 17,-14 40,-21 67,-21 29,0 52,8 69,24 17,16 25,36 25,60 0,13 -2,26 -7,38 -5,12 -12,25 -23,38 -7,9 -19,22 -37,38 -18,17 -30,28 -35,33 -5,6 -8,11 -11,16l113 0z"/>
 </g>
</svg>
